{
  "accessors": [
    {
      "bufferView": 2,
      "componentType": 5126,
      "count": 3435,
      "max": [
        6.29345178604126,
        29.189966201782227,
        36.64810562133789
      ],
      "min": [
        -6.300858020782471,
        -25.225454330444336,
        -0.598343014717102
      ],
      "type": "VEC3"
    },
    {
      "bufferView": 2,
      "byteOffset": 41220,
      "componentType": 5126,
      "count": 3435,
      "max": [
        0.999983012676239,
        0.9999854564666748,
        0.9997843503952026
      ],
      "min": [
        -0.9999899864196777,
        -0.9967585206031799,
        -0.9999446272850037
      ],
      "type": "VEC3"
    },
    {
      "bufferView": 1,
      "componentType": 5126,
      "count": 3435,
      "max": [
        0.9909480214118958,
        0.9853079915046692
      ],
      "min": [
        0.0076430002227425575,
        0.00873200036585331
      ],
      "type": "VEC2"
    },
    {
      "bufferView": 0,
      "componentType": 5125,
      "count": 18750,
      "type": "SCALAR"
    },
    {
      "bufferView": 2,
      "byteOffset": 82440,
      "componentType": 5126,
      "count": 499,
      "max": [
        6.250798225402832,
        -23.440488815307617,
        24.225568771362305
      ],
      "min": [
        -6.250401020050049,
        -25.570077896118164,
        17.1518497467041
      ],
      "type": "VEC3"
    },
    {
      "bufferView": 2,
      "byteOffset": 88428,
      "componentType": 5126,
      "count": 499,
      "max": [
        0.8741078972816467,
        0.6559587717056274,
        0.9880582094192505
      ],
      "min": [
        -0.8743696808815002,
        -0.982864260673523,
        -0.9998527765274048
      ],
      "type": "VEC3"
    },
    {
      "bufferView": 1,
      "byteOffset": 27480,
      "componentType": 5126,
      "count": 499,
      "max": [
        0.9814389944076538,
        0.9715219736099243
      ],
      "min": [
        0.0376259982585907,
        0.0019920000340789557
      ],
      "type": "VEC2"
    },
    {
      "bufferView": 0,
      "byteOffset": 75000,
      "componentType": 5125,
      "count": 1476,
      "type": "SCALAR"
    },
    {
      "bufferView": 2,
      "byteOffset": 94416,
      "componentType": 5126,
      "count": 1134,
      "max": [
        2.8224899768829346,
        -22.421878814697266,
        22.41492462158203
      ],
      "min": [
        -2.8224899768829346,
        -23.484785079956055,
        19.912473678588867
      ],
      "type": "VEC3"
    },
    {
      "bufferView": 2,
      "byteOffset": 108024,
      "componentType": 5126,
      "count": 1134,
      "max": [
        0.9298378825187683,
        -0.3476320803165436,
        0.772918164730072
      ],
      "min": [
        -0.9298374056816101,
        -0.9996744990348816,
        -0.7918480038642883
      ],
      "type": "VEC3"
    },
    {
      "bufferView": 1,
      "byteOffset": 31472,
      "componentType": 5126,
      "count": 1134,
      "max": [
        0.9879680275917053,
        0.8195840120315552
      ],
      "min": [
        0.017890000715851784,
        0.04239499941468239
      ],
      "type": "VEC2"
    },
    {
      "bufferView": 0,
      "byteOffset": 80904,
      "componentType": 5125,
      "count": 6384,
      "type": "SCALAR"
    },
    {
      "bufferView": 2,
      "byteOffset": 121632,
      "componentType": 5126,
      "count": 2628,
      "max": [
        1.3786289691925049,
        -20.192150115966797,
        19.01701545715332
      ],
      "min": [
        -1.3828070163726807,
        -24.040992736816406,
        18.043487548828125
      ],
      "type": "VEC3"
    },
    {
      "bufferView": 2,
      "byteOffset": 153168,
      "componentType": 5126,
      "count": 2628,
      "max": [
        0.999687135219574,
        0.9983900189399719,
        0.9994223713874817
      ],
      "min": [
        -0.999642014503479,
        -0.9996034502983093,
        -0.9993123412132263
      ],
      "type": "VEC3"
    },
    {
      "bufferView": 1,
      "byteOffset": 40544,
      "componentType": 5126,
      "count": 2628,
      "max": [
        0.9592040181159973,
        0.9958459734916687
      ],
      "min": [
        0.013855000026524067,
        0.045559000223875046
      ],
      "type": "VEC2"
    },
    {
      "bufferView": 0,
      "byteOffset": 106440,
      "componentType": 5125,
      "count": 8856,
      "type": "SCALAR"
    }
  ],
  "asset": {
    "extras": {
      "author": "lilyjoyhanna (https://sketchfab.com/lilyjoyhanna)",
      "license": "CC-BY-4.0 (http://creativecommons.org/licenses/by/4.0/)",
      "source": "https://sketchfab.com/3d-models/cat-low-poly-88c519da2bdc485eac3f63e6e444a404",
      "title": "Cat Low Poly"
    },
    "generator": "Sketchfab-12.67.0",
    "version": "2.0"
  },
  "bufferViews": [
    {
      "buffer": 0,
      "byteLength": 141864,
      "name": "floatBufferViews",
      "target": 34963
    },
    {
      "buffer": 0,
      "byteLength": 61568,
      "byteOffset": 141864,
      "byteStride": 8,
      "name": "floatBufferViews",
      "target": 34962
    },
    {
      "buffer": 0,
      "byteLength": 184704,
      "byteOffset": 203432,
      "byteStride": 12,
      "name": "floatBufferViews",
      "target": 34962
    }
  ],
  "buffers": [
    {
      "byteLength": 388136,
      "uri": "scene.bin"
    }
  ],
  "extensionsRequired": [
    "KHR_materials_pbrSpecularGlossiness"
  ],
  "extensionsUsed": [
    "KHR_materials_pbrSpecularGlossiness"
  ],
  "materials": [
    {
      "doubleSided": true,
      "extensions": {
        "KHR_materials_pbrSpecularGlossiness": {
          "diffuseFactor": [
            1.0,
            1.0,
            1.0,
            1.0
          ],
          "glossinessFactor": 0.4,
          "specularFactor": [
            0.0,
            0.0,
            0.0
          ]
        }
      },
      "name": "Cat2SG"
    },
    {
      "doubleSided": true,
      "extensions": {
        "KHR_materials_pbrSpecularGlossiness": {
          "diffuseFactor": [
            1.0,
            1.0,
            1.0,
            1.0
          ],
          "glossinessFactor": 0.4,
          "specularFactor": [
            0.0,
            0.0,
            0.0
          ]
        }
      },
      "name": "initialShadingGroup"
    },
    {
      "doubleSided": true,
      "extensions": {
        "KHR_materials_pbrSpecularGlossiness": {
          "diffuseFactor": [
            1.0,
            1.0,
            1.0,
            1.0
          ],
          "glossinessFactor": 0.4,
          "specularFactor": [
            0.0,
            0.0,
            0.0
          ]
        }
      },
      "name": "phongE1SG"
    },
    {
      "doubleSided": true,
      "extensions": {
        "KHR_materials_pbrSpecularGlossiness": {
          "diffuseFactor": [
            1.0,
            1.0,
            1.0,
            1.0
          ],
          "glossinessFactor": 0.4,
          "specularFactor": [
            0.0,
            0.0,
            0.0
          ]
        }
      },
      "name": "phongE2SG"
    }
  ],
  "meshes": [
    {
      "name": "Object_0",
      "primitives": [
        {
          "attributes": {
            "NORMAL": 1,
            "POSITION": 0,
            "TEXCOORD_0": 2
          },
          "indices": 3,
          "material": 1,
          "mode": 4
        }
      ]
    },
    {
      "name": "Object_1",
      "primitives": [
        {
          "attributes": {
            "NORMAL": 5,
            "POSITION": 4,
            "TEXCOORD_0": 6
          },
          "indices": 7,
          "material": 0,
          "mode": 4
        }
      ]
    },
    {
      "name": "Object_2",
      "primitives": [
        {
          "attributes": {
            "NORMAL": 9,
            "POSITION": 8,
            "TEXCOORD_0": 10
          },
          "indices": 11,
          "material": 2,
          "mode": 4
        }
      ]
    },
    {
      "name": "Object_3",
      "primitives": [
        {
          "attributes": {
            "NORMAL": 13,
            "POSITION": 12,
            "TEXCOORD_0": 14
          },
          "indices": 15,
          "material": 3,
          "mode": 4
        }
      ]
    }
  ],
  "nodes": [
    {
      "children": [
        1
      ],
      "matrix": [
        1.0,
        0.0,
        0.0,
        0.0,
        0.0,
        2.220446049250313e-16,
        -1.0,
        0.0,
        0.0,
        1.0,
        2.220446049250313e-16,
        0.0,
        0.0,
        0.0,
        0.0,
        1.0
      ],
      "name": "Sketchfab_model"
    },
    {
      "children": [
        2,
        3,
        4,
        5
      ],
      "name": "Cat_Low.obj.cleaner.materialmerger.gles"
    },
    {
      "mesh": 0,
      "name": "Object_2"
    },
    {
      "mesh": 1,
      "name": "Object_3"
    },
    {
      "mesh": 2,
      "name": "Object_4"
    },
    {
      "mesh": 3,
      "name": "Object_5"
    }
  ],
  "scene": 0,
  "scenes": [
    {
      "name": "Sketchfab_Scene",
      "nodes": [
        0
      ]
    }
  ]
}
